<svg viewBox="0 0 128 97" fill="none" xmlns="http://www.w3.org/2000/svg">
  <path fill-rule="evenodd" clip-rule="evenodd" d="M9.2998 97C3.83497 97 0 93.2135 0 87.789V86.1629L13.1348 10.8371C14.2253 4.87849 20.7807 0 26.8088 0H117.242L102.993 82.2102L128 96.9644L9.31178 96.9881L9.2998 97ZM41.6933 64.1681C39.7998 64.1681 38.4815 62.8625 38.4815 60.987V60.4173L43.0116 34.4224C43.3951 32.3571 45.6601 30.6834 47.7334 30.6834H78.9884L73.152 64.1563H41.7053L41.6933 64.1681Z" fill="#E2013D"/>
  <path d="M28.6475 28.0956C29.8254 21.4154 36.2792 16.0001 43.0624 16.0001H84.0028C90.786 16.0001 95.3301 21.4154 94.1522 28.0956L87.0429 68.4141C85.865 75.0942 79.4113 80.5096 72.628 80.5096H31.6876C24.9044 80.5096 20.3604 75.0942 21.5383 68.4141L28.6475 28.0956Z" fill="#FFFFFF"/>
  <path d="M73.8742 76.3592L72.9995 81.3198H31.0307L31.9054 76.3592H73.8742ZM82.7394 68.9204L90.0272 27.5892C90.7517 23.4805 87.9575 20.1504 83.7853 20.1504H41.8165C37.6444 20.1504 33.6758 23.4805 32.9513 27.5892L25.6635 68.9204C24.939 73.0292 27.7332 76.3592 31.9054 76.3592L31.0307 81.3198L30.386 81.3036C23.7919 80.9717 19.4567 75.5545 20.6264 68.9204L27.9142 27.5892C29.1217 20.7413 35.7376 15.1899 42.6912 15.1899H84.66C91.6136 15.1899 96.2718 20.7413 95.0643 27.5892L87.7765 68.9204C86.569 75.7684 79.9531 81.3198 72.9995 81.3198L73.8742 76.3592C78.0463 76.3592 82.0149 73.0292 82.7394 68.9204Z" fill="#E2013D"/>
  <path d="M45.3391 50.305C45.5717 48.9862 44.6745 47.917 43.3353 47.917C41.9962 47.917 40.7219 48.9862 40.4894 50.305C40.2568 51.6238 41.154 52.693 42.4932 52.693C43.8324 52.693 45.1066 51.6238 45.3391 50.305ZM52.8546 66.703L55.7341 50.3727C55.9007 49.4274 56.8139 48.6612 57.7737 48.6612C58.7335 48.6612 59.3765 49.4274 59.2098 50.3727L56.3303 66.703C56.1636 67.6483 55.2505 68.4145 54.2907 68.4145C53.3308 68.4145 52.6879 67.6483 52.8546 66.703ZM73.7555 54.4045C73.988 53.0857 73.0909 52.0165 71.7517 52.0165C70.4125 52.0165 69.1383 53.0857 68.9057 54.4045C68.6732 55.7233 69.5703 56.7925 70.9095 56.7925C72.2487 56.7925 73.5229 55.7233 73.7555 54.4045ZM61.3544 42.106C61.587 40.7872 60.6898 39.718 59.3506 39.718C58.0115 39.718 56.7372 40.7872 56.5047 42.106C56.2721 43.4248 57.1693 44.494 58.5085 44.494C59.8477 44.494 61.1219 43.4248 61.3544 42.106ZM71.0504 46.1378L73.9299 29.8075C74.0965 28.8622 75.0097 28.096 75.9695 28.096C76.9293 28.096 77.5723 28.8622 77.4056 29.8075L74.5261 46.1378C74.3594 47.0831 73.4463 47.8493 72.4865 47.8493C71.5266 47.8493 70.8837 47.0831 71.0504 46.1378ZM42.634 42.0383L44.7907 29.8075C44.9573 28.8622 45.8705 28.096 46.8303 28.096C47.7901 28.096 48.4331 28.8622 48.2664 29.8075L46.1098 42.0383C45.9431 42.9836 45.03 43.7498 44.0701 43.7498C43.1103 43.7498 42.4674 42.9836 42.634 42.0383ZM77.2312 54.4045C76.7703 57.0182 74.6285 59.2286 72.089 59.9592L70.8999 66.703C70.7332 67.6483 69.8201 68.4145 68.8603 68.4145C67.9004 68.4145 67.2575 67.6483 67.4242 66.703L68.6133 59.9592C66.3315 59.2286 64.9691 57.0182 65.43 54.4045C65.9959 51.1951 69.0964 48.5935 72.3552 48.5935C75.6141 48.5935 77.7971 51.1951 77.2312 54.4045ZM48.8149 50.305C48.354 52.9187 46.2121 55.1291 43.6727 55.8597L41.7607 66.703C41.594 67.6483 40.6809 68.4145 39.7211 68.4145C38.7612 68.4145 38.1183 67.6483 38.285 66.703L40.1969 55.8597C37.9151 55.1291 36.5528 52.9187 37.0136 50.305C37.5795 47.0956 40.68 44.494 43.9389 44.494C47.1977 44.494 49.3808 47.0956 48.8149 50.305ZM64.8302 42.106C64.2643 45.3153 61.1638 47.917 57.9049 47.917C54.6461 47.917 52.4631 45.3153 53.029 42.106C53.4898 39.4921 55.6318 37.2797 58.1715 36.5492L59.3603 29.8075C59.5269 28.8622 60.4401 28.096 61.3999 28.096C62.3597 28.096 63.0027 28.8622 62.836 29.8075L61.6472 36.5492C63.9294 37.2797 65.2911 39.4921 64.8302 42.106Z" fill="#E2013D"/>
</svg>
