<svg xmlns="http://www.w3.org/2000/svg" version="1.1" viewBox="0 0 470 470" style="shape-rendering:geometricPrecision; text-rendering:geometricPrecision; image-rendering:optimizeQuality; fill-rule:evenodd; clip-rule:evenodd" xmlns:xlink="http://www.w3.org/1999/xlink">
<g><path style="opacity:1" fill="#4b8fd4" d="M -0.5,-0.5 C 156.167,-0.5 312.833,-0.5 469.5,-0.5C 469.5,156.167 469.5,312.833 469.5,469.5C 312.833,469.5 156.167,469.5 -0.5,469.5C -0.5,312.833 -0.5,156.167 -0.5,-0.5 Z"/></g>
<g><path style="opacity:1" fill="#f2f2f2" d="M 210.5,43.5 C 234.948,42.7747 259.281,43.9414 283.5,47C 334.848,56.3666 371.682,84.5332 394,131.5C 398.354,140.536 401.854,149.869 404.5,159.5C 370.497,166.501 336.497,173.501 302.5,180.5C 295.9,155.4 280.233,138.9 255.5,131C 207.326,123.659 177.16,143.492 165,190.5C 160.268,222.549 160.601,254.549 166,286.5C 176.168,326.686 202.002,344.852 243.5,341C 267.205,338.625 284.372,326.792 295,305.5C 300.859,294.123 304.692,282.123 306.5,269.5C 340.631,279.154 374.631,289.321 408.5,300C 401.382,329.068 388.548,355.235 370,378.5C 340.34,409.734 303.84,425.901 260.5,427C 223.287,430.384 186.954,426.384 151.5,415C 118.191,401.588 92.3573,379.422 74,348.5C 58.0851,320.607 49.0851,290.607 47,258.5C 43.2985,220.476 47.6318,183.476 60,147.5C 80.3475,98.1559 116.181,65.9892 167.5,51C 181.772,47.3382 196.106,44.8382 210.5,43.5 Z"/></g>
</svg>
