<?xml version="1.0" encoding="UTF-8"?>
<svg version="1.1" xmlns="http://www.w3.org/2000/svg" width="614" height="256">
<path d="M0 0 C202.62 0 405.24 0 614 0 C614 84.48 614 168.96 614 256 C411.38 256 208.76 256 0 256 C0 171.52 0 87.04 0 0 Z " fill="#FC9531" transform="translate(0,0)"/>
<path d="M0 0 C68.64 0 137.28 0 208 0 C208 84.48 208 168.96 208 256 C139.69 256 71.38 256 1 256 C2.32 255.01 3.64 254.02 5 253 C9.079304 249.89972896 11.58092432 247.94743316 13 243 C13.28342888 239.90103936 13.27411066 236.81759435 13.26069641 233.70741272 C13.26452196 232.76815695 13.26834751 231.82890118 13.27228898 230.86118311 C13.2826123 227.71216745 13.27862807 224.56333434 13.2746582 221.41430664 C13.27900503 219.15732148 13.28418807 216.9003378 13.29014587 214.64335632 C13.30354988 208.51119711 13.304113 202.37909947 13.30158257 196.24692845 C13.30051387 191.12994719 13.30539362 186.01297844 13.310188 180.89599985 C13.32192277 168.13557176 13.32105531 155.37518829 13.31463119 142.61476063 C13.30946168 131.53547045 13.3207185 120.45626818 13.33972941 109.37699539 C13.35910549 97.99757236 13.36707277 86.61820305 13.36360615 75.23875898 C13.36179134 68.85134687 13.36444939 62.46401529 13.37832069 56.07661629 C13.39087493 50.07085491 13.38897762 44.06526979 13.37590981 38.05951118 C13.37353929 35.85443564 13.37629565 33.64934778 13.38453293 31.44428635 C13.39496161 28.4358421 13.38693066 25.42799354 13.3742218 22.41957092 C13.38159609 21.54554046 13.38897037 20.67151 13.39656812 19.77099377 C13.34611722 14.10011397 12.5044923 9.75160221 8.53515625 5.390625 C5.73947714 3.22527142 3.18585306 1.59292653 0 0 Z " fill="#FEFEFE" transform="translate(406,0)"/>
<path d="M0 0 C58.74 0 117.48 0 178 0 C176.68 0.66 175.36 1.32 174 2 C172.12771764 3.31326222 172.12771764 3.31326222 170.375 4.8125 C169.48941406 5.53373047 169.48941406 5.53373047 168.5859375 6.26953125 C164.33529545 10.90754708 164.7136413 16.32897418 164.73930359 22.24789429 C164.73547804 23.18236094 164.73165249 24.1168276 164.72771102 25.07961142 C164.71738801 28.21247386 164.72137189 31.3451528 164.7253418 34.47802734 C164.72099493 36.7235379 164.71581186 38.96904697 164.70985413 41.21455383 C164.69644986 47.31578953 164.69588708 53.41696333 164.69841743 59.51821089 C164.69948622 64.61024463 164.69460608 69.70226581 164.689812 74.79429686 C164.67807688 87.49394776 164.67894471 100.19355382 164.68536881 112.89320429 C164.690537 123.91685362 164.67928502 134.94041456 164.66027059 145.9640464 C164.640888 157.28810371 164.63292834 168.61210702 164.63639385 179.93618548 C164.63820791 186.29177156 164.63555823 192.64727669 164.62167931 199.00284958 C164.60911576 204.97988717 164.61103126 210.95674774 164.62409019 216.93378258 C164.62645877 219.12715019 164.62371128 221.3205302 164.61546707 223.51388359 C164.60502185 226.50884117 164.61308274 229.50320233 164.6257782 232.49813843 C164.61840391 233.3653651 164.61102963 234.23259177 164.60343188 235.12609804 C164.65608067 241.03312668 165.451144 246.09934877 169.5 250.70703125 C171.96926195 252.52682586 174.44721057 254.29814038 177 256 C118.59 256 60.18 256 0 256 C0 171.52 0 87.04 0 0 Z " fill="#FEFEFE" transform="translate(0,0)"/>
<path d="M0 0 C0.93632436 -0.00694553 1.87264873 -0.01389106 2.83734655 -0.02104706 C5.95874554 -0.03926847 9.07938032 -0.02906614 12.20080566 -0.01878357 C14.44514025 -0.02584442 16.68947007 -0.03459014 18.93379211 -0.04489136 C25.0184504 -0.06737473 31.10284844 -0.06444816 37.18753242 -0.05556989 C42.26969398 -0.05045694 47.35180677 -0.05775498 52.4339633 -0.06504196 C65.1082749 -0.08300839 77.78243109 -0.07663363 90.45672649 -0.05887216 C101.45371092 -0.04417377 112.45042217 -0.05880853 123.44737142 -0.08764232 C134.75233235 -0.11706194 146.05717045 -0.12749354 157.36217928 -0.11846012 C163.70382807 -0.11353127 170.04526447 -0.11574482 176.3868866 -0.13624763 C182.34931156 -0.15460224 188.31122866 -0.14864804 194.27362633 -0.12404823 C196.46012303 -0.11904004 198.64665841 -0.12253024 200.83312416 -0.13519669 C203.82137994 -0.15113695 206.80796528 -0.13616636 209.79614258 -0.11352539 C210.65841005 -0.12536112 211.52067752 -0.13719685 212.40907431 -0.14939123 C218.48557894 -0.0560522 222.73091744 1.55929244 227.39807129 5.5146637 C231.57746502 11.76393088 230.78107455 18.81036526 230.69104004 26.10450745 C230.6867952 27.40416946 230.68255035 28.70383148 230.67817688 30.0428772 C230.66679078 33.47725629 230.63737878 36.9112472 230.60406494 40.34547424 C230.57322837 43.85819754 230.5596427 47.37098432 230.54455566 50.88380432 C230.51250192 57.76091564 230.46138244 64.63777097 230.39807129 71.5146637 C216.59892095 74.91132183 202.83463047 78.23607254 188.83557129 80.7021637 C188.1453891 80.82506775 187.45520691 80.9479718 186.74411011 81.07460022 C145.23016809 88.44828537 103.4001184 90.56137255 61.39807129 86.5146637 C60.66088867 86.44521545 59.92370605 86.37576721 59.16418457 86.30421448 C54.55319318 85.85039038 49.97688471 85.21428247 45.39807129 84.5146637 C44.41226074 84.36690491 43.4264502 84.21914612 42.4107666 84.06690979 C20.86984215 80.79085493 -0.34906802 76.28154425 -21.60192871 71.5146637 C-21.69494493 63.96031263 -21.7658531 56.40602156 -21.8091774 48.85122681 C-21.82997979 45.34251051 -21.85816034 41.83418836 -21.90368652 38.32569885 C-21.95579229 34.28448377 -21.97493448 30.24367741 -21.99255371 26.2021637 C-22.01319885 24.952901 -22.03384399 23.70363831 -22.05511475 22.41651917 C-22.05683597 15.69043268 -22.02588439 9.87296885 -17.60192871 4.5146637 C-12.05429354 0.52912711 -6.65347509 -0.06358785 0 0 Z " fill="#FBFDFB" transform="translate(187.6019287109375,1.4853363037109375)"/>
<path d="M0 0 C6.25834351 5.15057103 10.90197669 11.40545654 11.83349609 19.64575195 C12.50835812 30.82247181 12.7522759 41.1544098 5.578125 50.38671875 C-0.43187957 57.04998468 -6.53122844 60.91794234 -15.421875 62.38671875 C-17.42026747 62.4770716 -19.42144753 62.51682188 -21.421875 62.51171875 C-22.4325 62.51429688 -23.443125 62.516875 -24.484375 62.51953125 C-27.421875 62.38671875 -27.421875 62.38671875 -32.421875 61.38671875 C-32.421875 71.94671875 -32.421875 82.50671875 -32.421875 93.38671875 C-38.031875 93.38671875 -43.641875 93.38671875 -49.421875 93.38671875 C-49.421875 62.03671875 -49.421875 30.68671875 -49.421875 -1.61328125 C-35.0664803 -7.76559326 -13.59923567 -9.0588457 0 0 Z " fill="#FEFBFC" transform="translate(378.421875,143.61328125)"/>
<path d="M0 0 C5.61 0 11.22 0 17 0 C17 31.35 17 62.7 17 95 C2.33250605 99.88916465 -14.25324489 101.754552 -28.703125 94.67578125 C-36.58512172 89.70385948 -41.86627785 83.13141307 -44 74 C-45.08695942 64.07473254 -45.25015959 53.58354299 -39.0078125 45.3828125 C-32.75044464 38.11415286 -25.59484494 31.78496203 -15.66381836 30.75854492 C-13.26708698 30.70672503 -10.89628339 30.73700371 -8.5 30.8125 C-5.695 30.874375 -2.89 30.93625 0 31 C0 20.77 0 10.54 0 0 Z " fill="#FEFBFC" transform="translate(299,107)"/>
<path d="M0 0 C5.28 0 10.56 0 16 0 C16.33 17.82 16.66 35.64 17 54 C22.28 48.39 27.56 42.78 33 37 C38 32 38 32 40.31176758 31.43237305 C41.08157959 31.45855713 41.8513916 31.48474121 42.64453125 31.51171875 C43.48564453 31.52783203 44.32675781 31.54394531 45.19335938 31.56054688 C46.05767578 31.60244141 46.92199219 31.64433594 47.8125 31.6875 C48.69615234 31.71005859 49.57980469 31.73261719 50.49023438 31.75585938 C52.6608891 31.81452572 54.8306669 31.90420021 57 32 C49.60733197 40.65736669 42.15489327 49.04638969 33.7734375 56.7734375 C33.18820313 57.50820312 32.60296875 58.24296875 32 59 C32.58365479 63.51804722 35.4931846 66.67840588 38.1875 70.1875 C38.71053711 70.87859863 39.23357422 71.56969727 39.77246094 72.28173828 C44.54533912 78.53193589 49.54250903 84.59425178 54.62963867 90.59057617 C55.20045166 91.26967041 55.77126465 91.94876465 56.359375 92.6484375 C56.86952148 93.24833496 57.37966797 93.84823242 57.90527344 94.46630859 C59 96 59 96 59 98 C42.43961237 99.66783151 42.43961237 99.66783151 37.0859375 96.0078125 C34.78685947 93.12351461 32.90343059 90.15864564 31 87 C29.28520259 84.66375469 27.4839979 82.39868753 25.6875 80.125 C24.88699219 79.07570313 24.08648437 78.02640625 23.26171875 76.9453125 C21.2079665 74.27082339 19.10650933 71.63313667 17 69 C16.67 78.24 16.34 87.48 16 97 C10.72 97 5.44 97 0 97 C0 64.99 0 32.98 0 0 Z " fill="#FEFDFC" transform="translate(195,107)"/>
<path d="M0 0 C3.78678104 3.54856705 6.86632399 6.89717354 7.203125 12.1953125 C7.3943381 28.22534391 7.3943381 28.22534391 2.60546875 33.55078125 C-1.94897163 37.64401248 -5.64203946 38.1411101 -11.5625 38.125 C-12.51253906 38.12757813 -13.46257812 38.13015625 -14.44140625 38.1328125 C-17 38 -17 38 -20 37 C-20 24.13 -20 11.26 -20 -2 C-12.94911505 -3.76272124 -6.35946014 -3.77633922 0 0 Z " fill="#FA9531" transform="translate(366,154)"/>
<path d="M0 0 C0 13.2 0 26.4 0 40 C-16.43243243 40 -16.43243243 40 -22.75 34.6875 C-27.5809202 28.9172342 -27.43410641 22.51313714 -27.3125 15.28515625 C-26.77422226 9.62651156 -24.08462768 6.87719008 -20.0625 3.25 C-14.49979213 -0.83688742 -6.64071096 -3.32035548 0 0 Z " fill="#FE9630" transform="translate(299,152)"/>
<path d="M0 0 C2.875 0.75 2.875 0.75 4.875 1.75 C4.875 2.41 4.875 3.07 4.875 3.75 C6.174375 2.7290625 6.174375 2.7290625 7.5 1.6875 C10.875 -0.25 10.875 -0.25 14 -0.25 C17.3465302 0.9140105 18.66914606 1.99530998 20.875 4.75 C21.32910156 7.49902344 21.32910156 7.49902344 21.265625 10.609375 C21.25273437 11.72441406 21.23984375 12.83945312 21.2265625 13.98828125 C21.19304687 15.14714844 21.15953125 16.30601563 21.125 17.5 C21.10695313 18.67433594 21.08890625 19.84867188 21.0703125 21.05859375 C21.0231912 23.9565534 20.95741305 26.85286418 20.875 29.75 C18.235 29.75 15.595 29.75 12.875 29.75 C12.545 22.49 12.215 15.23 11.875 7.75 C9.895 8.08 7.915 8.41 5.875 8.75 C5.875 15.68 5.875 22.61 5.875 29.75 C3.565 29.75 1.255 29.75 -1.125 29.75 C-1.455 22.82 -1.785 15.89 -2.125 8.75 C-3.445 8.42 -4.765 8.09 -6.125 7.75 C-7.74280157 9.36780157 -7.34772147 11.20635518 -7.44140625 13.44140625 C-7.48330078 14.38564453 -7.52519531 15.32988281 -7.56835938 16.30273438 C-7.60767578 17.29595703 -7.64699219 18.28917969 -7.6875 19.3125 C-7.75227539 20.80813477 -7.75227539 20.80813477 -7.81835938 22.33398438 C-7.92480298 24.8058415 -8.02681928 27.2778031 -8.125 29.75 C-10.435 29.75 -12.745 29.75 -15.125 29.75 C-15.125 20.18 -15.125 10.61 -15.125 0.75 C-12.815 0.75 -10.505 0.75 -8.125 0.75 C-7.795 1.41 -7.465 2.07 -7.125 2.75 C-6.58875 2.234375 -6.0525 1.71875 -5.5 1.1875 C-3.125 -0.25 -3.125 -0.25 0 0 Z " fill="#15070D" transform="translate(252.125,21.25)"/>
<path d="M0 0 C4.04553841 3.0341538 5.27756904 5.11465005 6 10 C6.47213497 15.31732336 6.66064451 19.62977434 4.3125 24.5 C1.07547809 27.99948315 -1.21546507 29.77693313 -6 30.375 C-9.59808231 29.92523971 -11.21602953 29.34439618 -14 27 C-17.82971058 21.68580877 -18.93892941 16.44499692 -18 10 C-16.74513414 5.74739902 -15.58311948 3.55535188 -12.375 0.5 C-7.91795182 -1.4809103 -4.63333405 -1.47618194 0 0 Z " fill="#14090E" transform="translate(347,22)"/>
<path d="M0 0 C5.46341463 2.92682927 5.46341463 2.92682927 7 6 C7.4160649 9.46627044 7.56036754 12.95242537 7.75 16.4375 C7.85248047 17.88866211 7.85248047 17.88866211 7.95703125 19.36914062 C8.03244141 20.76229492 8.03244141 20.76229492 8.109375 22.18359375 C8.16061523 23.03493896 8.21185547 23.88628418 8.26464844 24.76342773 C8 27 8 27 6.62988281 28.82055664 C5 30 5 30 2.8125 29.6875 C2.214375 29.460625 1.61625 29.23375 1 29 C1 28.34 1 27.68 1 27 C0.360625 27.495 -0.27875 27.99 -0.9375 28.5 C-5.02866575 30.50383628 -8.52151301 30.87731555 -13 30 C-16.30504612 27.33984093 -16.88272732 25.65672698 -17.625 21.5 C-16.97360192 17.85217077 -16.76848529 17.36677919 -14.125 15.125 C-9.21308809 11.7848999 -6.84230699 11.90576924 -1 12 C-1.33 10.35 -1.66 8.7 -2 7 C-4.31 7 -6.62 7 -9 7 C-9 7.99 -9 8.98 -9 10 C-10.98 10 -12.96 10 -15 10 C-15.8125 8.3125 -15.8125 8.3125 -16 6 C-11.0566332 0.25500615 -7.37751068 -0.92837802 0 0 Z " fill="#0F0B12" transform="translate(294,21)"/>
<path d="M0 0 C2.91927604 1.3961755 4.72202996 2.72202996 7 5 C7.30297852 6.81591797 7.30297852 6.81591797 7.37890625 8.9921875 C7.43014648 10.17361328 7.43014648 10.17361328 7.48242188 11.37890625 C7.50884766 12.20261719 7.53527344 13.02632812 7.5625 13.875 C7.62273619 15.49753214 7.6864229 17.11994062 7.75390625 18.7421875 C7.77783447 19.4626123 7.8017627 20.18303711 7.82641602 20.92529297 C7.93936096 23.03605442 7.93936096 23.03605442 8.58959961 25.15283203 C8.72503174 25.76239746 8.86046387 26.37196289 9 27 C7.8125 28.8125 7.8125 28.8125 6 30 C4 29.6875 4 29.6875 2 29 C-0.9254644 28.7763932 -0.9254644 28.7763932 -3 30 C-4.49756871 30.09499503 -5.99942932 30.12987198 -7.5 30.125 C-8.2940625 30.12757812 -9.088125 30.13015625 -9.90625 30.1328125 C-12 30 -12 30 -14 29 C-14 28.34 -14 27.68 -14 27 C-14.66 27 -15.32 27 -16 27 C-16.78279267 19.01551481 -16.78279267 19.01551481 -13.6875 15 C-9.41327093 11.81917836 -6.20284687 11.90183308 -1 12 C-1.33 10.35 -1.66 8.7 -2 7 C-4.41619823 6.74969023 -4.41619823 6.74969023 -7 7 C-7.99 8.485 -7.99 8.485 -9 10 C-11.625 10.1875 -11.625 10.1875 -14 10 C-14.33 8.35 -14.66 6.7 -15 5 C-9.85588631 0.8034862 -6.75207056 -0.75167004 0 0 Z " fill="#0D070E" transform="translate(224,21)"/>
<path d="M0 0 C1.6965332 1.1809082 1.6965332 1.1809082 3 3 C3.34057617 5.72729492 3.34057617 5.72729492 3.29296875 8.98046875 C3.28330078 10.14384766 3.27363281 11.30722656 3.26367188 12.50585938 C3.23853516 13.72080078 3.21339844 14.93574219 3.1875 16.1875 C3.16719727 18.02731445 3.16719727 18.02731445 3.14648438 19.90429688 C3.11108741 22.93663664 3.0617076 25.96809996 3 29 C0.69 29 -1.62 29 -4 29 C-4.33 22.07 -4.66 15.14 -5 8 C-6.32 7.67 -7.64 7.34 -9 7 C-10.61780157 8.61780157 -10.22272147 10.45635518 -10.31640625 12.69140625 C-10.35830078 13.63564453 -10.40019531 14.57988281 -10.44335938 15.55273438 C-10.48267578 16.54595703 -10.52199219 17.53917969 -10.5625 18.5625 C-10.60568359 19.55958984 -10.64886719 20.55667969 -10.69335938 21.58398438 C-10.79980298 24.0558415 -10.90181928 26.5278031 -11 29 C-13.64 29 -16.28 29 -19 29 C-19 19.43 -19 9.86 -19 0 C-16.69 0 -14.38 0 -12 0 C-11.67 0.66 -11.34 1.32 -11 2 C-10.484375 1.484375 -9.96875 0.96875 -9.4375 0.4375 C-5.95573432 -1.61584899 -3.8368404 -0.97665028 0 0 Z " fill="#110A17" transform="translate(376,22)"/>
<path d="M0 0 C3.80318748 1.13067736 7.21668252 2.60561914 10.75 4.375 C31.31051984 13.72573574 55.4301295 13.52976413 76.40625 5.8046875 C79 5 79 5 83 5 C83 5.99 83 6.98 83 8 C64.41299919 17.90402233 45.50715001 22.50645168 24.71484375 16.33203125 C15.60121264 13.06415722 6.84459832 9.00756495 0 2 C0 1.34 0 0.68 0 0 Z " fill="#100C0E" transform="translate(232,54)"/>
<path d="M0 0 C6.27 0 12.54 0 19 0 C19 6.30743431 18.70429359 7.11615367 15.0625 11.75 C12.28223899 15.21839969 12.28223899 15.21839969 10 19 C10.63808594 19.13277344 11.27617187 19.26554687 11.93359375 19.40234375 C12.75988281 19.57894531 13.58617187 19.75554688 14.4375 19.9375 C15.67306641 20.19853516 15.67306641 20.19853516 16.93359375 20.46484375 C19 21 19 21 20 22 C20.04080783 23.99958364 20.04254356 26.00045254 20 28 C19.030625 27.835 18.06125 27.67 17.0625 27.5 C11.0357709 26.64427781 4.9283034 26.47011525 -1 28 C-1.98964895 22.39198931 -1.01940438 19.54881467 2.21899414 14.7878418 C4.10393943 12.15710912 6.02818017 9.56649566 8 7 C5.36 6.67 2.72 6.34 0 6 C0 4.02 0 2.04 0 0 Z " fill="#0D080C" transform="translate(307,22)"/>
<path d="M0 0 C1.875 0.8125 1.875 0.8125 2.875 2.8125 C2.99783119 5.14343612 3.05054232 7.47836039 3.0625 9.8125 C3.07667969 11.070625 3.09085937 12.32875 3.10546875 13.625 C2.875 16.8125 2.875 16.8125 0.875 18.8125 C-1.75 18.4375 -1.75 18.4375 -4.125 17.8125 C-5.18935435 14.61943695 -5.32565353 12.16806004 -5.375 8.8125 C-5.40078125 7.760625 -5.4265625 6.70875 -5.453125 5.625 C-5.125 2.8125 -5.125 2.8125 -3.7421875 0.92578125 C-2.125 -0.1875 -2.125 -0.1875 0 0 Z " fill="#E2F2F0" transform="translate(342.125,27.1875)"/>
<path d="M0 0 C0.7734375 -0.00257812 1.546875 -0.00515625 2.34375 -0.0078125 C4.5 0.125 4.5 0.125 7.5 1.125 C8.04738937 6.5988937 6.52235959 10.63694763 3.5 15.125 C2.51 15.785 1.52 16.445 0.5 17.125 C0.83 13.165 1.16 9.205 1.5 5.125 C-2.13 4.795 -5.76 4.465 -9.5 4.125 C-6.78924143 0.05886214 -4.59672424 -0.01532241 0 0 Z " fill="#1B0E21" transform="translate(315.5,51.875)"/>
<path d="M0 0 C0 4.19595766 -2.20749717 6.12576538 -5 9 C-6.19625318 10.05551751 -7.40561095 11.0962973 -8.625 12.125 C-12.90602806 15.75243599 -16.59968339 19.81344133 -20.31884766 24.00048828 C-23.80592582 27.90296291 -23.80592582 27.90296291 -26 29 C-25.41956979 25.58822563 -24.34474086 23.99240739 -21.8671875 21.609375 C-21.2287793 20.98571045 -20.59037109 20.3620459 -19.93261719 19.71948242 C-18.91409668 18.74458862 -18.91409668 18.74458862 -17.875 17.75 C-16.50068903 16.40951274 -15.12826835 15.06708457 -13.7578125 13.72265625 C-13.10329102 13.08086426 -12.44876953 12.43907227 -11.77441406 11.77783203 C-9.12271949 9.12102962 -6.67770974 6.31721105 -4.296875 3.41796875 C-3 2 -3 2 0 0 Z " fill="#D28526" transform="translate(253,139)"/>
<path d="M0 0 C0.36253776 5.43806647 0.36253776 5.43806647 -1.25 7.9375 C-3 9 -3 9 -5.1875 8.6875 C-5.785625 8.460625 -6.38375 8.23375 -7 8 C-7.6875 5.6875 -7.6875 5.6875 -8 3 C-5.90994325 -0.36731366 -3.75103888 -0.30413829 0 0 Z " fill="#E5EDE2" transform="translate(293,37)"/>
<path d="M0 0 C0.66 0.66 1.32 1.32 2 2 C0.90300781 2.08636719 -0.19398438 2.17273438 -1.32421875 2.26171875 C-2.77875906 2.40248072 -4.23318067 2.54447295 -5.6875 2.6875 C-6.40873047 2.74099609 -7.12996094 2.79449219 -7.87304688 2.84960938 C-13.16272471 3.40514632 -15.49618491 4.77481122 -19 9 C-20.33333333 10.33333333 -21.66666667 11.66666667 -23 13 C-22.91802415 10.21282111 -22.43764605 8.48247233 -20.55078125 6.40234375 C-14.16614352 0.76558115 -8.55254281 -1.02933259 0 0 Z " fill="#D48833" transform="translate(297,151)"/>
<path d="M0 0 C0.25 5.625 0.25 5.625 -2 9 C-3.65 8.67 -5.3 8.34 -7 8 C-7.1875 5.125 -7.1875 5.125 -7 2 C-4 0 -4 0 0 0 Z " fill="#E5F3F2" transform="translate(223,37)"/>
<path d="M0 0 C1 1 1 1 1.0625 3.5625 C1.041875 4.366875 1.02125 5.17125 1 6 C-3.455 6.495 -3.455 6.495 -8 7 C-7.625 4.0625 -7.625 4.0625 -7 1 C-4.51588385 -0.24205807 -2.74800896 -0.14092354 0 0 Z " fill="#E9E8DF" transform="translate(292,27)"/>
<path d="M0 0 C2.5 0.125 2.5 0.125 3.5 1.125 C3.54063832 2.79117115 3.542721 4.45888095 3.5 6.125 C-0.955 6.62 -0.955 6.62 -5.5 7.125 C-3.27837838 0.16391892 -3.27837838 0.16391892 0 0 Z " fill="#E6F0EF" transform="translate(219.5,26.875)"/>
<path d="M0 0 C0.33 0 0.66 0 1 0 C0.938125 1.299375 0.87625 2.59875 0.8125 3.9375 C0.82420065 11.36741192 2.87316261 17.51958761 8 23 C7.67 23.66 7.34 24.32 7 25 C2.30664719 20.81403669 -0.67604608 16.86977684 -1.21484375 10.43359375 C-1.26439238 6.65138157 -1.20312291 3.60936872 0 0 Z " fill="#E38F2A" transform="translate(273,165)"/>
<path d="M0 0 C0.33 0 0.66 0 1 0 C1.56112879 18.2886419 1.56112879 18.2886419 -2 25 C-2.66 25.66 -3.32 26.32 -4 27 C-3.59083076 23.59025633 -3.16490087 20.45863054 -2 17.21875 C-0.88229741 13.62114478 -0.58762913 10.38144802 -0.375 6.625 C-0.30023438 5.37976563 -0.22546875 4.13453125 -0.1484375 2.8515625 C-0.09945313 1.91054687 -0.05046875 0.96953125 0 0 Z " fill="#CE7A20" transform="translate(391,164)"/>
<path d="M0 0 C1.32 0.66 2.64 1.32 4 2 C3.45730469 2.20753906 2.91460937 2.41507812 2.35546875 2.62890625 C-1.67354671 4.36392372 -4.26331713 5.57348949 -6 9.75 C-6.33 10.8225 -6.66 11.895 -7 13 C-7.66 11.68 -8.32 10.36 -9 9 C-8.06725891 7.87105124 -7.12859878 6.74699124 -6.1875 5.625 C-5.66542969 4.99851562 -5.14335937 4.37203125 -4.60546875 3.7265625 C-3 2 -3 2 0 0 Z " fill="#F99D42" transform="translate(174,1)"/>
<path d="M0 0 C5.29158974 1.40071493 7.77478044 4.85487245 11 9 C10.34 10.32 9.68 11.64 9 13 C8.649375 11.9275 8.29875 10.855 7.9375 9.75 C6.06101126 5.25917985 3.29925831 4.02795203 -1 2 C-0.67 1.34 -0.34 0.68 0 0 Z " fill="#F8993C" transform="translate(408,1)"/>
<path d="M0 0 C0 4.38968456 -2.12805101 5.76905739 -5 9 C-6.32 8.67 -7.64 8.34 -9 8 C-7.87811441 6.85111717 -6.75238316 5.70598863 -5.625 4.5625 C-4.99851563 3.92441406 -4.37203125 3.28632813 -3.7265625 2.62890625 C-2 1 -2 1 0 0 Z " fill="#DB932D" transform="translate(253,139)"/>
<path d="M0 0 C1.21236328 0.01353516 1.21236328 0.01353516 2.44921875 0.02734375 C3.37154297 0.04474609 3.37154297 0.04474609 4.3125 0.0625 C4.3125 0.3925 4.3125 0.7225 4.3125 1.0625 C1.6725 1.3925 -0.9675 1.7225 -3.6875 2.0625 C-2.3675 2.7225 -1.0475 3.3825 0.3125 4.0625 C-2.9875 4.0625 -6.2875 4.0625 -9.6875 4.0625 C-6.9209694 -0.0872959 -4.6801992 -0.06782897 0 0 Z " fill="#3A2F2A" transform="translate(315.6875,51.9375)"/>
<path d="M0 0 C3.63 0 7.26 0 11 0 C10.67 1.65 10.34 3.3 10 5 C9.67 4.34 9.34 3.68 9 3 C8.01 3 7.02 3 6 3 C6 2.34 6 1.68 6 1 C4.02 1 2.04 1 0 1 C0 0.67 0 0.34 0 0 Z " fill="#E8EDEE" transform="translate(306,56)"/>
<path d="M0 0 C0.66 0 1.32 0 2 0 C0.64531705 4.87685861 -1.71675909 6.48592381 -6 9 C-4.4722133 5.56247993 -2.49818944 2.81046312 0 0 Z " fill="#D28627" transform="translate(384,192)"/>
<path d="M0 0 C0.66 0.33 1.32 0.66 2 1 C1.0409375 1.7425 1.0409375 1.7425 0.0625 2.5 C-2.81515269 5.98806387 -2.70230736 8.53461041 -3 13 C-3.33 13 -3.66 13 -4 13 C-4.63019694 4.80743982 -4.63019694 4.80743982 -2 1.4375 C-1.34 0.963125 -0.68 0.48875 0 0 Z " fill="#70210A" transform="translate(212,35)"/>
<path d="M0 0 C4 5 4 5 8 10 C7.01 10 6.02 10 5 10 C3.61328125 8.57421875 3.61328125 8.57421875 2.3125 6.6875 C1.87550781 6.07261719 1.43851563 5.45773438 0.98828125 4.82421875 C0 3 0 3 0 0 Z " fill="#F29D31" transform="translate(226,166)"/>
<path d="M0 0 C1.485 0.99 1.485 0.99 3 2 C3 2.99 3 3.98 3 5 C3.66 5 4.32 5 5 5 C5.625 6.875 5.625 6.875 6 9 C5.34 9.66 4.68 10.32 4 11 C0.71428571 3.57142857 0.71428571 3.57142857 0 0 Z " fill="#F1A133" transform="translate(384,148)"/>
<path d="M0 0 C0.66 0 1.32 0 2 0 C1.38461538 5.53846154 1.38461538 5.53846154 -0.5625 7.875 C-1.036875 8.24625 -1.51125 8.6175 -2 9 C-1.125 2.25 -1.125 2.25 0 0 Z " fill="#D88F29" transform="translate(389,182)"/>
</svg>
