<svg xmlns="http://www.w3.org/2000/svg" class="icon-wbs-training" viewBox="0 20 80 80">
<path fill="#d0d0d0" d="M72.8 76.5q0-1.8-.3-3.6-.45-4.2-1.2-8.4c-.8-4.1-1.7-8.3-2.8-12.3-.8-3.1-1.7-6.1-2.6-9.2-.8-2.6-2.4-9.9-6.2-9.3 0 0-.2 0-.4.1 1.1 3.5 2.3 7.3 3.4 11.5 1.6 5.9 2.9 11.9 4.1 17.9q1.05 5.25 1.8 10.5c.1 1 .1 2.2-.6 3s-1.7 1.2-2.6 1.5c-2.8 1-5.5 2.2-8.3 3.1-11.1 4-22.6 7.1-34.2 9.4-1.4.3-2.7.5-4.1.8-2.4.5-4.9 1-7.4 1.4-.9.1-1.9.2-2.8 0 .2.3.3.7.6 1 .6 1 1.5 2 2.7 2.2.8.1 1.6-.1 2.4-.2.9-.1 1.8-.3 2.7-.4 2.2-.3 4.3-.7 6.5-1.1l8.7-1.8c3.4-.8 6.8-1.6 10.2-2.5 6.1-1.6 12-3.5 17.9-5.6 2.4-.9 4.9-1.8 7.3-2.7.4-.2.9-.3 1.3-.5 1.3-.5 2.9-1.1 3.6-2.4.4-.6.3-1.5.3-2.4"/>
<path fill="#0071b2" d="M52.3 30c0 1.3-1 2.3-2.3 2.3s-2.3-1-2.3-2.3 1-2.3 2.3-2.3 2.3 1 2.3 2.3m7.3-4.1c0 1.3-1 2.3-2.3 2.3s-2.3-1-2.3-2.3 1-2.3 2.3-2.3c1.2 0 2.3 1 2.3 2.3m-4.4 40.4c-1.7-11.8-4.9-23.4-9.3-34.5-.8-1.9-1.7-2.7-3.6-2.8-.2 0-.5.1-.7.1h-.3c-11.5 1.5-22.9 4.6-33.6 9-1.3.5-2.6 1.2-3.1 2.4-.3.8-.2 1.8-.1 2.7 1.9 11.7 5 23.1 9.4 34.1.3.8.6 1.6 1.3 2 .9.6 2.1.5 3.2.3 11.8-1.8 23.3-5 34.4-9.4.9-.4 1.9-.8 2.3-1.7.3-.6.2-1.4.1-2.2m-27.7-26c1.3 0 2.3 1 2.3 2.3s-1 2.3-2.3 2.3-2.3-1-2.3-2.3 1-2.3 2.3-2.3M17.4 76.8c-1.3 0-2.3-1-2.3-2.3s1-2.3 2.3-2.3 2.3 1 2.3 2.3c0 1.2-1 2.3-2.3 2.3m7.3-4.1c-1.3 0-2.3-1-2.3-2.3s1-2.3 2.3-2.3 2.3 1 2.3 2.3c0 1.2-1 2.3-2.3 2.3m2.1-22.2c0-1.3 1-2.3 2.3-2.3s2.3 1 2.3 2.3-1 2.3-2.3 2.3-2.3-1-2.3-2.3m1.5 7.9c0-1.3 1-2.3 2.3-2.3s2.3 1 2.3 2.3-1 2.3-2.3 2.3c-1.2 0-2.3-1-2.3-2.3M32 68.6c-1.3 0-2.3-1-2.3-2.3s1-2.3 2.3-2.3 2.3 1 2.3 2.3-1 2.3-2.3 2.3m2.8-27.7c-1.3 0-2.3-1-2.3-2.3s1-2.3 2.3-2.3 2.3 1 2.3 2.3c0 1.2-1 2.3-2.3 2.3m7.3-4.1c-1.3 0-2.3-1-2.3-2.3s1-2.3 2.3-2.3 2.3 1 2.3 2.3c0 1.2-1 2.3-2.3 2.3M7.3 79c0-1.3 1-2.3 2.3-2.3s2.3 1 2.3 2.3-1 2.3-2.3 2.3-2.3-1.1-2.3-2.3M0 83.1c0-1.3 1-2.3 2.3-2.3s2.3 1 2.3 2.3-1 2.3-2.3 2.3S0 84.3 0 83.1"/>
</svg>